<?xml version="1.0" standalone="no"?>
<!DOCTYPE svg PUBLIC "-//W3C//DTD SVG 20010904//EN"
 "http://www.w3.org/TR/2001/REC-SVG-20010904/DTD/svg10.dtd">
<svg version="1.0" xmlns="http://www.w3.org/2000/svg"
 width="2000.000000pt" height="2256.000000pt" viewBox="0 0 2000.000000 2256.000000"
 preserveAspectRatio="xMidYMid meet">

<g transform="translate(0.000000,2256.000000) scale(0.100000,-0.100000)"
fill="#000000" stroke="none">
<path d="M20 11280 l0 -11240 9980 0 9980 0 0 11240 0 11240 -9980 0 -9980 0
0 -11240z m19440 0 l0 -10730 -9460 0 -9460 0 0 10730 0 10730 9460 0 9460 0
0 -10730z"/>
<path d="M1600 11280 l0 -9670 8400 0 8400 0 0 9670 0 9670 -8400 0 -8400 0 0
-9670z m10670 8090 c1426 -41 2418 -188 3038 -450 520 -221 862 -604 1002
-1122 57 -215 74 -361 73 -663 0 -303 -17 -529 -63 -845 -87 -596 -281 -1322
-459 -1717 -268 -594 -645 -865 -1096 -789 -170 29 -476 101 -1090 256 -1133
286 -1615 379 -2121 410 -722 45 -1240 -206 -1588 -769 -326 -528 -496 -1367
-496 -2451 0 -1038 143 -1836 422 -2360 214 -404 498 -694 815 -833 70 -31
263 -87 299 -87 12 0 14 170 14 1024 0 591 4 1044 9 1072 57 299 374 585 930
839 341 156 727 292 1096 385 597 151 1041 191 1780 160 663 -28 1025 -92
1331 -235 178 -83 283 -170 399 -330 135 -187 202 -319 241 -473 l24 -95 0
-3139 c0 -2615 -2 -3144 -14 -3171 -88 -211 -756 -386 -1916 -501 -604 -61
-1018 -80 -1690 -80 -941 1 -1400 42 -1618 146 -143 68 -256 240 -301 460 -9
43 -181 1469 -181 1499 0 5 -38 9 -85 9 -80 0 -85 -1 -90 -22 -3 -13 -12 -59
-20 -103 -110 -561 -365 -1076 -744 -1500 -327 -366 -800 -596 -1396 -679
-625 -86 -1589 -7 -2163 179 -419 135 -885 396 -1329 745 -148 116 -486 455
-617 620 -556 699 -941 1587 -1185 2735 -154 723 -242 1462 -293 2440 -17 331
-17 1549 0 1805 53 800 140 1403 290 2021 237 972 666 1974 1140 2664 191 278
373 497 604 727 582 579 1255 1033 2088 1411 763 345 1459 562 2135 666 831
128 1730 172 2825 141z"/>
</g>
</svg>
